<svg id="Layer_1" data-name="Layer 1" xmlns="http://www.w3.org/2000/svg" viewBox="0 0 915.12 665.78"><path d="M158.05,434.75c-36.11,3.09-95.27-21.67-105.93-66C36,301.3,66.56,247.3,104.74,204.3c53.66-60.53,90.8-19.6,117.29,19.26,17.88,26.83-11.35,42.31-37.49,23.05-11.7-8.6-15.48-9.63-31.64,7.91-29.58,32.67-51.94,73.26-40.93,119,1.72,7.91,14.1,7.22,19.94,6.87,25.8-2.4,51.94-24.07,70.51-48.84-5.5.69-11.69,2.75-21.32,4.13-36.12,5.16-67.41-38.52-32.68-49.18,26.83-7.91,52.63-15.82,83.24-20.29,15.82-2.41,57.78,21.66,48.49,51.59C263.3,371.8,215.49,429.59,158.05,434.75Z" transform="translate(-47.7 -170.81)"/><path d="M472.74,429.93c-15.82-4.13-35.77-16.85-41.27-35.77-3.1-11.35-5.85-18.57-8.94-27.86-28.55,4.47-59.85,12.73-83.93,22A224.59,224.59,0,0,0,332.41,420c-5.5,37.14-49.87,8.6-47.12-33.71,4.13-60.53,58.82-163.72,98-208.43,21.32-24.08,69.82,19.61,70.5,44.37.69,32,11,64.66,18.23,96,18.23,8.94,23.39,31.3,10.67,40.59C487.88,374.9,497.51,389,503,405.51,510.58,427.87,494.07,435.44,472.74,429.93ZM395.35,269.31A396.89,396.89,0,0,0,368.18,314c12.38-.68,25.45-.34,38.18,0C402.23,299.92,398.45,284.44,395.35,269.31Z" transform="translate(-47.7 -170.81)"/><path d="M727.24,435.44c-13.42-3.79-29.58-16.17-33.36-31.3-7.91-33.37-10.66-60.19-11.7-90.46C672.55,329.16,656,355,653.63,371.8s-14.44,23.39-27.86,17.2c-28.89-13.07-38.86-60.88-44.71-88.39-6.53,33.7-12.38,85.64-6.53,115.56,8.6,42.31-50.56,22.71-57.78-21.66C503,313,524.31,227.35,546.32,185.73c15.48-29.23,71.2,10.66,74.64,38.52,1,8.6,4.81,34.74,7.91,55,11.35-27.51,31.3-87.36,54-103.87,12.73-9.28,65.35,11.35,62.94,40.25-4.47,56.06-1,126.22,10.32,194.67C760.26,434.4,742.37,439.91,727.24,435.44Z" transform="translate(-47.7 -170.81)"/><path d="M944.94,411.36c-27.86-.34-81.18,16.16-104.22,27.52-21.32,10.31-55.38-32.34-57.1-45.41-3.44-29.57,5.16-114.19,9.29-144.11-16.51-14.1-27.86-46.43-4.81-54.34,32-11,64-14.79,102.83-11.7,20.3,1.72,38.87,14.11,48.85,25.45,4.81,5.51,8.94,12.39,8.94,18.58-.34,10-8.94,12.72-16.51,12-22.7-2.41-54,1.72-79.45,7.22-1.38,7.57-3.1,16.51-4.47,24.42,21-1.38,45.4-1.72,56.75-1,38.86,2.75,51.24,46.77,14.44,46.77-8.6,0-53.65,10.32-76,20,0,9.29,0,18.58.34,28.21,36.46-7.23,83.93-14.1,111.79,17.54C963.51,391.41,970.39,411.36,944.94,411.36Z" transform="translate(-47.7 -170.81)"/><path d="M224.09,823.71c-38.17,10-98-13.42-113.15-46.78-13.42-29.58-12.73-41.62-11-72.92,1.72-36.45,48.84-113.84,91.83-120.72,40.59-6.53,72.23,3.78,96,41.62,21.67,34.74,27.18,74.29,12.73,125.88C292.2,780,261.58,814.08,224.09,823.71ZM162.53,715c-11,31.3-7.91,61.22,14.44,57.44,77.74-13.41,90.12-153.74,43.34-134.48C203.46,644.86,172.16,686.82,162.53,715Z" transform="translate(-47.7 -170.81)"/><path d="M441.1,815.8c-.34,29.58-66.38,15.48-80.48-13.76a343.3,343.3,0,0,1-23.73-67.76C332.76,715.71,331,702,329.32,693c-5.5-29.24-3.44-56.06-8.94-84.61-8.25-43.34,59.16-14.1,61.91,23,2.06,24.08,5.85,59.5,11,90.12,9.63-38.87,27.51-117.29,47.8-148.93,18.92-29.58,69.14,24.42,51.6,53.31C467.93,667.56,441.45,756.64,441.1,815.8Z" transform="translate(-47.7 -170.81)"/><path d="M678.41,806.85c-27.86-.34-81.17,16.17-104.22,27.52C552.87,844.69,518.82,802,517.1,789c-3.44-29.58,5.16-114.19,9.29-144.11-16.51-14.11-27.86-46.44-4.82-54.35,32-11,64-14.79,102.84-11.69,20.29,1.72,38.87,14.1,48.84,25.45,4.81,5.5,8.94,12.38,8.94,18.58-.34,10-8.94,12.72-16.51,12-22.7-2.4-54,1.72-79.45,7.23-1.37,7.56-3.09,16.5-4.47,24.42,21-1.38,45.4-1.72,56.75-1,38.87,2.75,51.25,46.78,14.45,46.78-8.6,0-53.66,10.32-76,20,0,9.28,0,18.57.34,28.2,36.46-7.22,83.92-14.1,111.78,17.54C697,786.91,703.86,806.85,678.41,806.85Z" transform="translate(-47.7 -170.81)"/><path d="M886.48,811.67C860,799,809.78,774.87,770.91,764.89c.69,20.64,1,33,2.75,52.63,4.13,44-55,3.09-58.12-34.74a706,706,0,0,1,2.75-149.27c-21.33-27.86-7.57-56.41,29.23-56.41,57.78,0,127.26,5.16,146.87,50.22,19.6,44.36-21.33,80.82-54.35,99.4,23.74,11.35,61.57,38.86,70.17,67.07C915.37,811.33,904.7,820.27,886.48,811.67ZM815.62,640c-13.07-1.37-27.51-.69-39.21-.69-4.81,13.76-5.5,30.62-6.53,45.4,20.64-7.22,58.81-21.67,71.88-35.08C836.6,644.17,827.66,641.07,815.62,640Z" transform="translate(-47.7 -170.81)"/></svg>