<svg id="Layer_1" data-name="Layer 1" xmlns="http://www.w3.org/2000/svg" viewBox="0 0 963.95 183.68"><path d="M156.83,550.62c-18-8.65-52.13-25-78.54-31.79.47,14,.7,22.44,1.87,35.76C83,584.51,42.77,556.7,40.66,531a480.41,480.41,0,0,1,1.87-101.44C28,410.61,37.39,391.21,62.4,391.21c39.27,0,86.48,3.51,99.8,34.13,13.33,30.15-14.49,54.93-36.93,67.55,16.13,7.71,41.84,26.41,47.68,45.58C176.46,550.39,169.21,556.46,156.83,550.62ZM108.68,434c-8.88-.94-18.7-.47-26.65-.47-3.27,9.35-3.74,20.8-4.44,30.85,14-4.91,40-14.72,48.85-23.84C122.94,436.79,116.86,434.69,108.68,434Z" transform="translate(-35.67 -383.88)"/><path d="M295.65,547.35c-18.93-.24-55.16,11-70.82,18.7-14.49,7-37.63-22-38.8-30.86-2.34-20.1,3.5-77.6,6.31-97.93-11.22-9.59-18.93-31.56-3.27-36.93,21.73-7.48,43.47-10.05,69.88-7.95,13.79,1.17,26.41,9.58,33.19,17.3,3.27,3.74,6.08,8.41,6.08,12.62-.23,6.78-6.08,8.65-11.22,8.18-15.42-1.64-36.7,1.17-54,4.91-.94,5.14-2.11,11.22-3,16.59,14.26-.93,30.85-1.16,38.57-.7,26.41,1.87,34.82,31.79,9.81,31.79-5.84,0-36.46,7-51.65,13.56,0,6.31,0,12.62.23,19.16,24.78-4.91,57-9.58,76,11.92C308.27,533.79,313,547.35,295.65,547.35Z" transform="translate(-35.67 -383.88)"/><path d="M375.8,565.11c-22.9-.47-41.13-12.15-53.75-30.38-5.85-8.65-12.63-20.81-2.34-29.69,6.78-5.84,16.13-4,23.14,5.61,4.44,6.31,11.92,12.86,26.64,13.32,11.22.24,35.06-26.17,36.47-38.8a146.81,146.81,0,0,0-33.19,2.58c-10.29,1.87-18.47,4.2-27.35,4.67-15.66.93-33.42-17.3-37.17-29C301.71,443.1,376,360.13,415.31,391.68c6.54,5.38,11.21,12.86,16.82,19.17,14.5,16.82-10.28,29-23.14,18.93-2.57-1.87-6.07-2.34-8.64-4.21-7.72,3-21,11.92-30.86,20.8,15.2-.93,31.56-.93,44.65,2.58,12.85,3.5,30.62,14.25,33.89,25.24C458.31,507.85,419,566.28,375.8,565.11Z" transform="translate(-35.67 -383.88)"/><path d="M528.42,435.86c-6.54,24.54-12.85,87.18-5.84,114.29,7.25,28.05-37.4,13.79-41.14-14.72-3.27-23.38-2.8-69.42-.93-94.66a55.51,55.51,0,0,0-15.66,4.2c-21.5,8.88-53.53-28.05-30.85-37.16,13.08-5.38,34.59-10.75,47.44-11.92,17.77-1.64,45.11-6.55,62.41-6.31,24.78.23,50.95,43.94,23.14,43.71C559,433.29,543.38,434.45,528.42,435.86Z" transform="translate(-35.67 -383.88)"/><path d="M685,560c-10.76-2.81-24.31-11.45-28-24.31-2.11-7.71-4-12.62-6.08-18.93a295,295,0,0,0-57,15,152.93,152.93,0,0,0-4.21,21.5c-3.74,25.24-33.89,5.84-32-22.91,2.81-41.13,40-111.25,66.61-141.64,14.5-16.36,47.45,13.32,47.92,30.15.47,21.74,7.48,43.95,12.39,65.21,12.39,6.08,15.89,21.28,7.24,27.59,3.51,11,10.06,20.56,13.79,31.78C710.73,558.57,699.51,563.71,685,560ZM632.43,450.82A267.12,267.12,0,0,0,614,481.2c8.41-.47,17.3-.23,25.95,0C637.1,471.62,634.53,461.1,632.43,450.82Z" transform="translate(-35.67 -383.88)"/><path d="M835.53,550.62c-18-8.65-52.13-25-78.54-31.79.47,14,.7,22.44,1.87,35.76,2.81,29.92-37.39,2.11-39.5-23.6a480.41,480.41,0,0,1,1.87-101.44c-14.49-18.94-5.14-38.34,19.87-38.34,39.27,0,86.48,3.51,99.8,34.13,13.33,30.15-14.49,54.93-36.93,67.55,16.13,7.71,41.84,26.41,47.69,45.58C855.16,550.39,847.91,556.46,835.53,550.62ZM787.38,434c-8.88-.94-18.7-.47-26.65-.47-3.27,9.35-3.74,20.8-4.44,30.85,14-4.91,40-14.72,48.85-23.84C801.64,436.79,795.56,434.69,787.38,434Z" transform="translate(-35.67 -383.88)"/><path d="M949.11,435.86c-6.55,24.54-12.86,87.18-5.84,114.29,7.24,28.05-37.4,13.79-41.14-14.72-3.28-23.38-2.81-69.42-.94-94.66a55.59,55.59,0,0,0-15.66,4.2c-21.5,8.88-53.52-28.05-30.85-37.16,13.09-5.38,34.59-10.75,47.45-11.92,17.76-1.64,45.11-6.55,62.4-6.31,24.78.23,51,43.94,23.14,43.71C979.73,433.29,964.07,434.45,949.11,435.86Z" transform="translate(-35.67 -383.88)"/></svg>