<svg id="Layer_1" data-name="Layer 1" xmlns="http://www.w3.org/2000/svg" viewBox="0 0 940.88 218.68"><defs><style>.cls-1{fill:#840000;}</style></defs><path class="cls-1" d="M966.71,490.34c4-20.56,6.43-32.62,11.47-54a25,25,0,0,0-24.34-30.72H890.45a25,25,0,0,0-22.6,14.32c-18.34-11.43-43.26-17.24-74.13-17.24-25.9,0-52.72,2.94-53.85,3.07q-.81.09-1.62.24a25.34,25.34,0,0,0-4.36-.39h-107a25.12,25.12,0,0,0-4.16.35,25.14,25.14,0,0,0-4.17-.35H580.85a25,25,0,0,0-18.11,7.77l-1-.94a25,25,0,0,0-17.17-6.83H493.49a25.14,25.14,0,0,0-4.17.35,24.94,24.94,0,0,0-4.16-.35H447.42a25,25,0,0,0-18.11,7.77l-1-.94a25,25,0,0,0-17.17-6.83H360.06a25.05,25.05,0,0,0-4.17.35,25.14,25.14,0,0,0-4.17-.35H281a25.44,25.44,0,0,0-2.63.14,24.25,24.25,0,0,0-2.56-.14H240.4a24.9,24.9,0,0,0-15,5,24.94,24.94,0,0,0-15-5H147.2a24.8,24.8,0,0,0-7.4,1.12,24.94,24.94,0,0,0-7.41-1.12H63A25,25,0,0,0,39.42,439c.17.49,17.46,48.9,27,79.34,0,0,0,.08,0,.12,9.12,28.59,21.9,74.72,22,75.18A25,25,0,0,0,112.59,612h36.07a25,25,0,0,0,20.43-10.59A25,25,0,0,0,189.52,612H226a25,25,0,0,0,24-18c.09-.29,5.52-18.93,11.69-39.72.71,18.39,1.23,33.33,1.24,33.58a25,25,0,0,0,25,24.14h57.13a24.92,24.92,0,0,0,12-3.06A24.89,24.89,0,0,0,369,612h32.74a25,25,0,0,0,25-24.52l.13-6.83c6.6,4.91,13,9.93,19.71,15.18,5.5,4.31,11.19,8.77,17,13.18a25,25,0,0,0,26,2.56,26,26,0,0,0,2.87-1.64,25,25,0,0,0,10,2.07h32.73a25,25,0,0,0,25-24.52l.13-6.83c6.59,4.91,13,9.93,19.7,15.18,5.5,4.31,11.19,8.77,17,13.18a25,25,0,0,0,26,2.56c.71-.34,1.39-.73,2.06-1.13A25.07,25.07,0,0,0,633.8,612h91.12a24.92,24.92,0,0,0,12.5-3.36A24.82,24.82,0,0,0,749.93,612h57.34a25,25,0,0,0,7.67-1.2c.65.82,1.07,1.34,1.23,1.53a25,25,0,0,0,30.43,6.41c.08,0,8.92-4.45,20.64-9.82,7.66-3.48,14.48-6.18,17.59-7.38,8.76,8.41,21.2,13.59,35.23,13.59,26.2,0,47.52-19.64,47.52-43.77a42,42,0,0,0-10.1-27.41,24.85,24.85,0,0,0,.52-9.06c.25-4.67,3.16-18.2,5.11-27.26C964.34,501.91,965.6,496,966.71,490.34Z" transform="translate(-37.96 -402.66)"/></svg>