<svg id="Layer_1" data-name="Layer 1" xmlns="http://www.w3.org/2000/svg" viewBox="0 0 890.88 168.68"><defs><style>.cls-1{fill:red;}</style></defs><path class="cls-1" d="M275.85,430.58s-17.93,50.25-27.94,82.57C239.15,541.92,226,587,226,587H189.52s-10.21-42.75-18.34-73c-9,28.57-22.52,73-22.52,73H112.59s-12.93-46.71-22.31-76.11C80.48,479.58,63,430.58,63,430.58h69.43s4.17,20,7.51,32.32c3.34,12.92,10.84,40.65,10.84,40.65s5.84-16.88,8.76-29.39c-5.21-19.19-12.3-43.58-12.3-43.58h63.18s3.12,19.6,5.42,31.69c2.92,15.64,7.5,41.28,7.5,41.28s5.84-22.93,10.43-41.49c3.13-12.72,6.67-31.48,6.67-31.48Z" transform="translate(-62.96 -427.66)"/><path class="cls-1" d="M351.72,430.58s-2.5,50.87-4,83.19c-1.25,29-2.71,73.19-2.71,73.19H287.92s-1.46-42.54-2.92-73.19c-1.46-31.27-4-83.19-4-83.19Z" transform="translate(-62.96 -427.66)"/><path class="cls-1" d="M481.2,502.3C479.53,543,478.7,589,478.7,589,464.93,578.62,452,568,438,557.77c-11.47-8.55-23.56-16.48-35.24-24.81l-1,54H369s-1.67-41.29-3.75-78c-2.71-50.05-5.21-78.4-5.21-78.4h51.08l37.95,35.86s0-11.88-.42-19.39c-.41-6.67-1.25-16.47-1.25-16.47h37.74S482.45,471.65,481.2,502.3Z" transform="translate(-62.96 -427.66)"/><path class="cls-1" d="M614.63,502.3C613,543,612.13,589,612.13,589c-13.76-10.42-26.69-21.06-40.66-31.27C560,549.22,547.91,541.29,536.23,533l-1,54H502.46s-1.67-41.29-3.76-78c-2.71-50.05-5.21-78.4-5.21-78.4h51.08l37.95,35.86s0-11.88-.41-19.39c-.42-6.67-1.26-16.47-1.26-16.47h37.74S615.88,471.65,614.63,502.3Z" transform="translate(-62.96 -427.66)"/><path class="cls-1" d="M733.89,430.58,729.51,495s-7.51-1.26-16.27-2.09c-8.54-.83-18.76-1-18.76-1L693,511.27c12.09.42,36.49-.42,36.49-.42s-2.09,7.51-3.55,14c-1.45,6.68-2.5,14.39-2.5,14.39a83.3,83.3,0,0,0-14.8-1.88c-5.84-.41-16.26-.2-16.26-.2l-1,22.72s15.22-.21,28.15-1.25c4.17-.42,12.72-2.5,12.72-2.5s-1.67,6.26-3.75,15.22C726.8,578,724.92,587,724.92,587H633.8s-1.87-49-2.92-79.86c-.83-29.4-4-76.52-4-76.52Z" transform="translate(-62.96 -427.66)"/><path class="cls-1" d="M879.41,489.17c0,26.69-16.88,44.62-33.77,51.29a215,215,0,0,0,14.59,19.18c6.26,7.3,17.73,17.73,17.73,17.73s-9.6,3.54-21.06,8.75c-12.31,5.63-21.48,10.22-21.48,10.22a174.92,174.92,0,0,1-13.14-19c-5-8.34-13.76-26.07-13.76-26.07h-.21l-1,35.66H749.93s-2.29-44.41-3.13-73.19c-1-32.32-4.17-83.19-4.17-83.19s26.27-2.92,51.09-2.92C843.34,427.66,879.41,443.92,879.41,489.17Zm-46.28,21.89c0-14.39-14-16.89-23.15-16.47l-.62,34.82C817.7,529.41,833.13,525.66,833.13,511.06Z" transform="translate(-62.96 -427.66)"/><path class="cls-1" d="M953.84,430.58c-5,21.27-7.51,33.36-11.68,55-4,20.23-10.42,45.25-9,52.34-5.63.83-6.67.83-10.84,1.25-5,.63-7.93,1-12.52,1.88-3.12-21.06-4.79-33.36-8.54-54.42-3.76-21.9-7.09-34.41-10.85-56.09ZM942.58,571.32c0,10.84-10.84,18.77-22.52,18.77-12.51,0-23.35-7.93-23.35-19,0-11.26,10.22-18.76,23.35-18.76C931.74,552.35,942.58,559.85,942.58,571.32Z" transform="translate(-62.96 -427.66)"/></svg>