<?xml version="1.0" standalone="no"?>
<!DOCTYPE svg PUBLIC "-//W3C//DTD SVG 1.1//EN" 
  "http://www.w3.org/Graphics/SVG/1.1/DTD/svg11.dtd">
<svg width="1024" height="1024" viewBox="0 0 1024 1024"
     xmlns="http://www.w3.org/2000/svg" version="1.1">
<desc>, (Blender 2.83.0)</desc>
<polygon stroke="black" stroke-width="1" fill="rgb(204, 204, 204)" fill-opacity="0" points="223.588,223.587 223.588,159.496 159.496,159.496 159.496,223.587 " />
<polygon stroke="black" stroke-width="1" fill="rgb(204, 204, 204)" fill-opacity="0" points="159.496,223.587 159.496,223.587 159.496,159.496 159.496,159.496 " />
<polygon stroke="black" stroke-width="1" fill="rgb(204, 204, 204)" fill-opacity="0" points="800.413,159.496 800.413,159.496 864.504,159.496 864.504,159.496 " />
<polygon stroke="black" stroke-width="1" fill="rgb(204, 204, 204)" fill-opacity="0" points="223.587,864.504 223.587,864.504 159.496,864.504 159.496,864.504 " />
<polygon stroke="black" stroke-width="1" fill="rgb(204, 204, 204)" fill-opacity="0" points="864.504,800.413 864.504,800.413 864.504,864.504 864.504,864.504 " />
<polygon stroke="black" stroke-width="1" fill="rgb(204, 204, 204)" fill-opacity="0" points="864.504,159.496 864.504,159.496 864.504,223.588 864.504,223.588 " />
<polygon stroke="black" stroke-width="1" fill="rgb(204, 204, 204)" fill-opacity="0" points="864.504,223.588 864.504,223.588 864.504,287.679 864.504,287.679 " />
<polygon stroke="black" stroke-width="1" fill="rgb(204, 204, 204)" fill-opacity="0" points="864.504,287.679 864.504,287.679 864.504,351.771 864.504,351.771 " />
<polygon stroke="black" stroke-width="1" fill="rgb(204, 204, 204)" fill-opacity="0" points="864.504,351.771 864.504,351.771 864.504,415.863 864.504,415.863 " />
<polygon stroke="black" stroke-width="1" fill="rgb(204, 204, 204)" fill-opacity="0" points="864.504,415.863 864.504,415.863 864.504,479.954 864.504,479.954 " />
<polygon stroke="black" stroke-width="1" fill="rgb(204, 204, 204)" fill-opacity="0" points="864.504,479.954 864.504,479.954 864.504,544.046 864.504,544.046 " />
<polygon stroke="black" stroke-width="1" fill="rgb(204, 204, 204)" fill-opacity="0" points="864.504,544.046 864.504,544.046 864.504,608.138 864.504,608.138 " />
<polygon stroke="black" stroke-width="1" fill="rgb(204, 204, 204)" fill-opacity="0" points="864.504,608.138 864.504,608.138 864.504,672.229 864.504,672.229 " />
<polygon stroke="black" stroke-width="1" fill="rgb(204, 204, 204)" fill-opacity="0" points="864.504,672.229 864.504,672.229 864.504,736.321 864.504,736.321 " />
<polygon stroke="black" stroke-width="1" fill="rgb(204, 204, 204)" fill-opacity="0" points="864.504,736.321 864.504,736.321 864.504,800.413 864.504,800.413 " />
<polygon stroke="black" stroke-width="1" fill="rgb(204, 204, 204)" fill-opacity="0" points="864.504,864.504 864.504,864.504 800.412,864.504 800.412,864.504 " />
<polygon stroke="black" stroke-width="1" fill="rgb(204, 204, 204)" fill-opacity="0" points="800.412,864.504 800.412,864.504 736.321,864.504 736.321,864.504 " />
<polygon stroke="black" stroke-width="1" fill="rgb(204, 204, 204)" fill-opacity="0" points="736.321,864.504 736.321,864.504 672.229,864.504 672.229,864.504 " />
<polygon stroke="black" stroke-width="1" fill="rgb(204, 204, 204)" fill-opacity="0" points="672.229,864.504 672.229,864.504 608.138,864.504 608.138,864.504 " />
<polygon stroke="black" stroke-width="1" fill="rgb(204, 204, 204)" fill-opacity="0" points="608.138,864.504 608.138,864.504 544.046,864.504 544.046,864.504 " />
<polygon stroke="black" stroke-width="1" fill="rgb(204, 204, 204)" fill-opacity="0" points="544.046,864.504 544.046,864.504 479.954,864.504 479.954,864.504 " />
<polygon stroke="black" stroke-width="1" fill="rgb(204, 204, 204)" fill-opacity="0" points="479.954,864.504 479.954,864.504 415.862,864.504 415.862,864.504 " />
<polygon stroke="black" stroke-width="1" fill="rgb(204, 204, 204)" fill-opacity="0" points="415.862,864.504 415.862,864.504 351.771,864.504 351.771,864.504 " />
<polygon stroke="black" stroke-width="1" fill="rgb(204, 204, 204)" fill-opacity="0" points="351.771,864.504 351.771,864.504 287.679,864.504 287.679,864.504 " />
<polygon stroke="black" stroke-width="1" fill="rgb(204, 204, 204)" fill-opacity="0" points="287.679,864.504 287.679,864.504 223.587,864.504 223.587,864.504 " />
<polygon stroke="black" stroke-width="1" fill="rgb(204, 204, 204)" fill-opacity="0" points="159.496,159.496 159.496,159.496 223.588,159.496 223.588,159.496 " />
<polygon stroke="black" stroke-width="1" fill="rgb(204, 204, 204)" fill-opacity="0" points="223.588,159.496 223.588,159.496 287.679,159.496 287.679,159.496 " />
<polygon stroke="black" stroke-width="1" fill="rgb(204, 204, 204)" fill-opacity="0" points="287.679,159.496 287.679,159.496 351.771,159.496 351.771,159.496 " />
<polygon stroke="black" stroke-width="1" fill="rgb(204, 204, 204)" fill-opacity="0" points="351.771,159.496 351.771,159.496 415.863,159.496 415.863,159.496 " />
<polygon stroke="black" stroke-width="1" fill="rgb(204, 204, 204)" fill-opacity="0" points="415.863,159.496 415.863,159.496 479.954,159.496 479.954,159.496 " />
<polygon stroke="black" stroke-width="1" fill="rgb(204, 204, 204)" fill-opacity="0" points="479.954,159.496 479.954,159.496 544.046,159.496 544.046,159.496 " />
<polygon stroke="black" stroke-width="1" fill="rgb(204, 204, 204)" fill-opacity="0" points="544.046,159.496 544.046,159.496 608.138,159.496 608.138,159.496 " />
<polygon stroke="black" stroke-width="1" fill="rgb(204, 204, 204)" fill-opacity="0" points="608.138,159.496 608.138,159.496 672.229,159.496 672.229,159.496 " />
<polygon stroke="black" stroke-width="1" fill="rgb(204, 204, 204)" fill-opacity="0" points="672.229,159.496 672.229,159.496 736.321,159.496 736.321,159.496 " />
<polygon stroke="black" stroke-width="1" fill="rgb(204, 204, 204)" fill-opacity="0" points="736.321,159.496 736.321,159.496 800.413,159.496 800.413,159.496 " />
<polygon stroke="black" stroke-width="1" fill="rgb(204, 204, 204)" fill-opacity="0" points="159.496,864.504 159.496,864.504 159.496,800.413 159.496,800.413 " />
<polygon stroke="black" stroke-width="1" fill="rgb(204, 204, 204)" fill-opacity="0" points="159.496,800.413 159.496,800.413 159.496,736.321 159.496,736.321 " />
<polygon stroke="black" stroke-width="1" fill="rgb(204, 204, 204)" fill-opacity="0" points="159.496,736.321 159.496,736.321 159.496,672.229 159.496,672.229 " />
<polygon stroke="black" stroke-width="1" fill="rgb(204, 204, 204)" fill-opacity="0" points="159.496,672.229 159.496,672.229 159.496,608.137 159.496,608.137 " />
<polygon stroke="black" stroke-width="1" fill="rgb(204, 204, 204)" fill-opacity="0" points="159.496,608.137 159.496,608.137 159.496,544.046 159.496,544.046 " />
<polygon stroke="black" stroke-width="1" fill="rgb(204, 204, 204)" fill-opacity="0" points="159.496,544.046 159.496,544.046 159.496,479.954 159.496,479.954 " />
<polygon stroke="black" stroke-width="1" fill="rgb(204, 204, 204)" fill-opacity="0" points="159.496,479.954 159.496,479.954 159.496,415.862 159.496,415.862 " />
<polygon stroke="black" stroke-width="1" fill="rgb(204, 204, 204)" fill-opacity="0" points="159.496,415.862 159.496,415.862 159.496,351.771 159.496,351.771 " />
<polygon stroke="black" stroke-width="1" fill="rgb(204, 204, 204)" fill-opacity="0" points="159.496,351.771 159.496,351.771 159.496,287.679 159.496,287.679 " />
<polygon stroke="black" stroke-width="1" fill="rgb(204, 204, 204)" fill-opacity="0" points="159.496,287.679 159.496,287.679 159.496,223.587 159.496,223.587 " />
<polygon stroke="black" stroke-width="1" fill="rgb(204, 204, 204)" fill-opacity="0" points="223.587,864.504 223.587,800.413 159.496,800.413 159.496,864.504 " />
<polygon stroke="black" stroke-width="1" fill="rgb(204, 204, 204)" fill-opacity="0" points="223.587,800.413 223.587,736.321 159.496,736.321 159.496,800.413 " />
<polygon stroke="black" stroke-width="1" fill="rgb(204, 204, 204)" fill-opacity="0" points="223.587,736.321 223.587,672.229 159.496,672.229 159.496,736.321 " />
<polygon stroke="black" stroke-width="1" fill="rgb(204, 204, 204)" fill-opacity="0" points="223.587,672.229 223.587,608.137 159.496,608.137 159.496,672.229 " />
<polygon stroke="black" stroke-width="1" fill="rgb(204, 204, 204)" fill-opacity="0" points="223.587,608.137 223.587,544.046 159.496,544.046 159.496,608.137 " />
<polygon stroke="black" stroke-width="1" fill="rgb(204, 204, 204)" fill-opacity="0" points="223.587,544.046 223.587,479.954 159.496,479.954 159.496,544.046 " />
<polygon stroke="black" stroke-width="1" fill="rgb(204, 204, 204)" fill-opacity="0" points="223.587,479.954 223.587,415.862 159.496,415.862 159.496,479.954 " />
<polygon stroke="black" stroke-width="1" fill="rgb(204, 204, 204)" fill-opacity="0" points="223.587,415.862 223.587,351.771 159.496,351.771 159.496,415.862 " />
<polygon stroke="black" stroke-width="1" fill="rgb(204, 204, 204)" fill-opacity="0" points="223.587,351.771 223.587,287.679 159.496,287.679 159.496,351.771 " />
<polygon stroke="black" stroke-width="1" fill="rgb(204, 204, 204)" fill-opacity="0" points="223.587,287.679 223.588,223.587 159.496,223.587 159.496,287.679 " />
<polygon stroke="black" stroke-width="1" fill="rgb(204, 204, 204)" fill-opacity="0" points="864.504,864.504 864.504,800.413 800.412,800.413 800.412,864.504 " />
<polygon stroke="black" stroke-width="1" fill="rgb(204, 204, 204)" fill-opacity="0" points="800.412,864.504 800.412,800.413 736.321,800.413 736.321,864.504 " />
<polygon stroke="black" stroke-width="1" fill="rgb(204, 204, 204)" fill-opacity="0" points="736.321,864.504 736.321,800.413 672.229,800.413 672.229,864.504 " />
<polygon stroke="black" stroke-width="1" fill="rgb(204, 204, 204)" fill-opacity="0" points="672.229,864.504 672.229,800.413 608.138,800.413 608.138,864.504 " />
<polygon stroke="black" stroke-width="1" fill="rgb(204, 204, 204)" fill-opacity="0" points="608.138,864.504 608.138,800.413 544.046,800.413 544.046,864.504 " />
<polygon stroke="black" stroke-width="1" fill="rgb(204, 204, 204)" fill-opacity="0" points="544.046,864.504 544.046,800.413 479.954,800.413 479.954,864.504 " />
<polygon stroke="black" stroke-width="1" fill="rgb(204, 204, 204)" fill-opacity="0" points="479.954,864.504 479.954,800.413 415.862,800.413 415.862,864.504 " />
<polygon stroke="black" stroke-width="1" fill="rgb(204, 204, 204)" fill-opacity="0" points="415.862,864.504 415.862,800.413 351.771,800.413 351.771,864.504 " />
<polygon stroke="black" stroke-width="1" fill="rgb(204, 204, 204)" fill-opacity="0" points="351.771,864.504 351.771,800.413 287.679,800.413 287.679,864.504 " />
<polygon stroke="black" stroke-width="1" fill="rgb(204, 204, 204)" fill-opacity="0" points="287.679,864.504 287.679,800.413 223.587,800.413 223.587,864.504 " />
<polygon stroke="black" stroke-width="1" fill="rgb(204, 204, 204)" fill-opacity="0" points="864.504,800.413 864.504,736.321 800.412,736.321 800.412,800.413 " />
<polygon stroke="black" stroke-width="1" fill="rgb(204, 204, 204)" fill-opacity="0" points="800.412,800.413 800.412,736.321 736.321,736.321 736.321,800.413 " />
<polygon stroke="black" stroke-width="1" fill="rgb(204, 204, 204)" fill-opacity="0" points="736.321,800.413 736.321,736.321 672.229,736.321 672.229,800.413 " />
<polygon stroke="black" stroke-width="1" fill="rgb(204, 204, 204)" fill-opacity="0" points="672.229,800.413 672.229,736.321 608.138,736.321 608.138,800.413 " />
<polygon stroke="black" stroke-width="1" fill="rgb(204, 204, 204)" fill-opacity="0" points="608.138,800.413 608.138,736.321 544.046,736.321 544.046,800.413 " />
<polygon stroke="black" stroke-width="1" fill="rgb(204, 204, 204)" fill-opacity="0" points="544.046,800.413 544.046,736.321 479.954,736.321 479.954,800.413 " />
<polygon stroke="black" stroke-width="1" fill="rgb(204, 204, 204)" fill-opacity="0" points="479.954,800.413 479.954,736.321 415.862,736.321 415.862,800.413 " />
<polygon stroke="black" stroke-width="1" fill="rgb(204, 204, 204)" fill-opacity="0" points="415.862,800.413 415.862,736.321 351.771,736.321 351.771,800.413 " />
<polygon stroke="black" stroke-width="1" fill="rgb(204, 204, 204)" fill-opacity="0" points="351.771,800.413 351.771,736.321 287.679,736.321 287.679,800.413 " />
<polygon stroke="black" stroke-width="1" fill="rgb(204, 204, 204)" fill-opacity="0" points="287.679,800.413 287.679,736.321 223.587,736.321 223.587,800.413 " />
<polygon stroke="black" stroke-width="1" fill="rgb(204, 204, 204)" fill-opacity="0" points="864.504,736.321 864.504,672.229 800.412,672.229 800.412,736.321 " />
<polygon stroke="black" stroke-width="1" fill="rgb(204, 204, 204)" fill-opacity="0" points="800.412,736.321 800.412,672.229 736.321,672.229 736.321,736.321 " />
<polygon stroke="black" stroke-width="1" fill="rgb(204, 204, 204)" fill-opacity="0" points="736.321,736.321 736.321,672.229 672.229,672.229 672.229,736.321 " />
<polygon stroke="black" stroke-width="1" fill="rgb(204, 204, 204)" fill-opacity="0" points="672.229,736.321 672.229,672.229 608.138,672.229 608.138,736.321 " />
<polygon stroke="black" stroke-width="1" fill="rgb(204, 204, 204)" fill-opacity="0" points="608.138,736.321 608.138,672.229 544.046,672.229 544.046,736.321 " />
<polygon stroke="black" stroke-width="1" fill="rgb(204, 204, 204)" fill-opacity="0" points="544.046,736.321 544.046,672.229 479.954,672.229 479.954,736.321 " />
<polygon stroke="black" stroke-width="1" fill="rgb(204, 204, 204)" fill-opacity="0" points="479.954,736.321 479.954,672.229 415.862,672.229 415.862,736.321 " />
<polygon stroke="black" stroke-width="1" fill="rgb(204, 204, 204)" fill-opacity="0" points="415.862,736.321 415.862,672.229 351.771,672.229 351.771,736.321 " />
<polygon stroke="black" stroke-width="1" fill="rgb(204, 204, 204)" fill-opacity="0" points="351.771,736.321 351.771,672.229 287.679,672.229 287.679,736.321 " />
<polygon stroke="black" stroke-width="1" fill="rgb(204, 204, 204)" fill-opacity="0" points="287.679,736.321 287.679,672.229 223.587,672.229 223.587,736.321 " />
<polygon stroke="black" stroke-width="1" fill="rgb(204, 204, 204)" fill-opacity="0" points="864.504,672.229 864.504,608.138 800.412,608.138 800.412,672.229 " />
<polygon stroke="black" stroke-width="1" fill="rgb(204, 204, 204)" fill-opacity="0" points="800.412,672.229 800.412,608.138 736.321,608.138 736.321,672.229 " />
<polygon stroke="black" stroke-width="1" fill="rgb(204, 204, 204)" fill-opacity="0" points="736.321,672.229 736.321,608.138 672.229,608.138 672.229,672.229 " />
<polygon stroke="black" stroke-width="1" fill="rgb(204, 204, 204)" fill-opacity="0" points="672.229,672.229 672.229,608.138 608.138,608.138 608.138,672.229 " />
<polygon stroke="black" stroke-width="1" fill="rgb(204, 204, 204)" fill-opacity="0" points="608.138,672.229 608.138,608.138 544.046,608.138 544.046,672.229 " />
<polygon stroke="black" stroke-width="1" fill="rgb(204, 204, 204)" fill-opacity="0" points="544.046,672.229 544.046,608.138 479.954,608.138 479.954,672.229 " />
<polygon stroke="black" stroke-width="1" fill="rgb(204, 204, 204)" fill-opacity="0" points="479.954,672.229 479.954,608.138 415.862,608.138 415.862,672.229 " />
<polygon stroke="black" stroke-width="1" fill="rgb(204, 204, 204)" fill-opacity="0" points="415.862,672.229 415.862,608.138 351.771,608.138 351.771,672.229 " />
<polygon stroke="black" stroke-width="1" fill="rgb(204, 204, 204)" fill-opacity="0" points="351.771,672.229 351.771,608.138 287.679,608.138 287.679,672.229 " />
<polygon stroke="black" stroke-width="1" fill="rgb(204, 204, 204)" fill-opacity="0" points="287.679,672.229 287.679,608.138 223.587,608.137 223.587,672.229 " />
<polygon stroke="black" stroke-width="1" fill="rgb(204, 204, 204)" fill-opacity="0" points="864.504,608.138 864.504,544.046 800.412,544.046 800.412,608.138 " />
<polygon stroke="black" stroke-width="1" fill="rgb(204, 204, 204)" fill-opacity="0" points="800.412,608.138 800.412,544.046 736.321,544.046 736.321,608.138 " />
<polygon stroke="black" stroke-width="1" fill="rgb(204, 204, 204)" fill-opacity="0" points="736.321,608.138 736.321,544.046 672.229,544.046 672.229,608.138 " />
<polygon stroke="black" stroke-width="1" fill="rgb(204, 204, 204)" fill-opacity="0" points="672.229,608.138 672.229,544.046 608.138,544.046 608.138,608.138 " />
<polygon stroke="black" stroke-width="1" fill="rgb(204, 204, 204)" fill-opacity="0" points="608.138,608.138 608.138,544.046 544.046,544.046 544.046,608.138 " />
<polygon stroke="black" stroke-width="1" fill="rgb(204, 204, 204)" fill-opacity="0" points="544.046,608.138 544.046,544.046 479.954,544.046 479.954,608.138 " />
<polygon stroke="black" stroke-width="1" fill="rgb(204, 204, 204)" fill-opacity="0" points="479.954,608.138 479.954,544.046 415.862,544.046 415.862,608.138 " />
<polygon stroke="black" stroke-width="1" fill="rgb(204, 204, 204)" fill-opacity="0" points="415.862,608.138 415.862,544.046 351.771,544.046 351.771,608.138 " />
<polygon stroke="black" stroke-width="1" fill="rgb(204, 204, 204)" fill-opacity="0" points="351.771,608.138 351.771,544.046 287.679,544.046 287.679,608.138 " />
<polygon stroke="black" stroke-width="1" fill="rgb(204, 204, 204)" fill-opacity="0" points="287.679,608.138 287.679,544.046 223.587,544.046 223.587,608.137 " />
<polygon stroke="black" stroke-width="1" fill="rgb(204, 204, 204)" fill-opacity="0" points="864.504,544.046 864.504,479.954 800.412,479.954 800.412,544.046 " />
<polygon stroke="black" stroke-width="1" fill="rgb(204, 204, 204)" fill-opacity="0" points="800.412,544.046 800.412,479.954 736.321,479.954 736.321,544.046 " />
<polygon stroke="black" stroke-width="1" fill="rgb(204, 204, 204)" fill-opacity="0" points="736.321,544.046 736.321,479.954 672.229,479.954 672.229,544.046 " />
<polygon stroke="black" stroke-width="1" fill="rgb(204, 204, 204)" fill-opacity="0" points="672.229,544.046 672.229,479.954 608.138,479.954 608.138,544.046 " />
<polygon stroke="black" stroke-width="1" fill="rgb(204, 204, 204)" fill-opacity="0" points="608.138,544.046 608.138,479.954 544.046,479.954 544.046,544.046 " />
<polygon stroke="black" stroke-width="1" fill="rgb(204, 204, 204)" fill-opacity="0" points="544.046,544.046 544.046,479.954 479.954,479.954 479.954,544.046 " />
<polygon stroke="black" stroke-width="1" fill="rgb(204, 204, 204)" fill-opacity="0" points="479.954,544.046 479.954,479.954 415.862,479.954 415.862,544.046 " />
<polygon stroke="black" stroke-width="1" fill="rgb(204, 204, 204)" fill-opacity="0" points="415.862,544.046 415.862,479.954 351.771,479.954 351.771,544.046 " />
<polygon stroke="black" stroke-width="1" fill="rgb(204, 204, 204)" fill-opacity="0" points="351.771,544.046 351.771,479.954 287.679,479.954 287.679,544.046 " />
<polygon stroke="black" stroke-width="1" fill="rgb(204, 204, 204)" fill-opacity="0" points="287.679,544.046 287.679,479.954 223.587,479.954 223.587,544.046 " />
<polygon stroke="black" stroke-width="1" fill="rgb(204, 204, 204)" fill-opacity="0" points="864.504,479.954 864.504,415.863 800.412,415.863 800.412,479.954 " />
<polygon stroke="black" stroke-width="1" fill="rgb(204, 204, 204)" fill-opacity="0" points="800.412,479.954 800.412,415.863 736.321,415.863 736.321,479.954 " />
<polygon stroke="black" stroke-width="1" fill="rgb(204, 204, 204)" fill-opacity="0" points="736.321,479.954 736.321,415.863 672.229,415.863 672.229,479.954 " />
<polygon stroke="black" stroke-width="1" fill="rgb(204, 204, 204)" fill-opacity="0" points="672.229,479.954 672.229,415.863 608.138,415.862 608.138,479.954 " />
<polygon stroke="black" stroke-width="1" fill="rgb(204, 204, 204)" fill-opacity="0" points="608.138,479.954 608.138,415.862 544.046,415.862 544.046,479.954 " />
<polygon stroke="black" stroke-width="1" fill="rgb(204, 204, 204)" fill-opacity="0" points="544.046,479.954 544.046,415.862 479.954,415.862 479.954,479.954 " />
<polygon stroke="black" stroke-width="1" fill="rgb(204, 204, 204)" fill-opacity="0" points="479.954,479.954 479.954,415.862 415.862,415.862 415.862,479.954 " />
<polygon stroke="black" stroke-width="1" fill="rgb(204, 204, 204)" fill-opacity="0" points="415.862,479.954 415.862,415.862 351.771,415.862 351.771,479.954 " />
<polygon stroke="black" stroke-width="1" fill="rgb(204, 204, 204)" fill-opacity="0" points="351.771,479.954 351.771,415.862 287.679,415.862 287.679,479.954 " />
<polygon stroke="black" stroke-width="1" fill="rgb(204, 204, 204)" fill-opacity="0" points="287.679,479.954 287.679,415.862 223.587,415.862 223.587,479.954 " />
<polygon stroke="black" stroke-width="1" fill="rgb(204, 204, 204)" fill-opacity="0" points="864.504,415.863 864.504,351.771 800.412,351.771 800.412,415.863 " />
<polygon stroke="black" stroke-width="1" fill="rgb(204, 204, 204)" fill-opacity="0" points="800.412,415.863 800.412,351.771 736.321,351.771 736.321,415.863 " />
<polygon stroke="black" stroke-width="1" fill="rgb(204, 204, 204)" fill-opacity="0" points="736.321,415.863 736.321,351.771 672.229,351.771 672.229,415.863 " />
<polygon stroke="black" stroke-width="1" fill="rgb(204, 204, 204)" fill-opacity="0" points="672.229,415.863 672.229,351.771 608.138,351.771 608.138,415.862 " />
<polygon stroke="black" stroke-width="1" fill="rgb(204, 204, 204)" fill-opacity="0" points="608.138,415.862 608.138,351.771 544.046,351.771 544.046,415.862 " />
<polygon stroke="black" stroke-width="1" fill="rgb(204, 204, 204)" fill-opacity="0" points="544.046,415.862 544.046,351.771 479.954,351.771 479.954,415.862 " />
<polygon stroke="black" stroke-width="1" fill="rgb(204, 204, 204)" fill-opacity="0" points="479.954,415.862 479.954,351.771 415.862,351.771 415.862,415.862 " />
<polygon stroke="black" stroke-width="1" fill="rgb(204, 204, 204)" fill-opacity="0" points="415.862,415.862 415.862,351.771 351.771,351.771 351.771,415.862 " />
<polygon stroke="black" stroke-width="1" fill="rgb(204, 204, 204)" fill-opacity="0" points="351.771,415.862 351.771,351.771 287.679,351.771 287.679,415.862 " />
<polygon stroke="black" stroke-width="1" fill="rgb(204, 204, 204)" fill-opacity="0" points="287.679,415.862 287.679,351.771 223.587,351.771 223.587,415.862 " />
<polygon stroke="black" stroke-width="1" fill="rgb(204, 204, 204)" fill-opacity="0" points="864.504,351.771 864.504,287.679 800.412,287.679 800.412,351.771 " />
<polygon stroke="black" stroke-width="1" fill="rgb(204, 204, 204)" fill-opacity="0" points="800.412,351.771 800.412,287.679 736.321,287.679 736.321,351.771 " />
<polygon stroke="black" stroke-width="1" fill="rgb(204, 204, 204)" fill-opacity="0" points="736.321,351.771 736.321,287.679 672.229,287.679 672.229,351.771 " />
<polygon stroke="black" stroke-width="1" fill="rgb(204, 204, 204)" fill-opacity="0" points="672.229,351.771 672.229,287.679 608.138,287.679 608.138,351.771 " />
<polygon stroke="black" stroke-width="1" fill="rgb(204, 204, 204)" fill-opacity="0" points="608.138,351.771 608.138,287.679 544.046,287.679 544.046,351.771 " />
<polygon stroke="black" stroke-width="1" fill="rgb(204, 204, 204)" fill-opacity="0" points="544.046,351.771 544.046,287.679 479.954,287.679 479.954,351.771 " />
<polygon stroke="black" stroke-width="1" fill="rgb(204, 204, 204)" fill-opacity="0" points="479.954,351.771 479.954,287.679 415.862,287.679 415.862,351.771 " />
<polygon stroke="black" stroke-width="1" fill="rgb(204, 204, 204)" fill-opacity="0" points="415.862,351.771 415.862,287.679 351.771,287.679 351.771,351.771 " />
<polygon stroke="black" stroke-width="1" fill="rgb(204, 204, 204)" fill-opacity="0" points="351.771,351.771 351.771,287.679 287.679,287.679 287.679,351.771 " />
<polygon stroke="black" stroke-width="1" fill="rgb(204, 204, 204)" fill-opacity="0" points="287.679,351.771 287.679,287.679 223.587,287.679 223.587,351.771 " />
<polygon stroke="black" stroke-width="1" fill="rgb(204, 204, 204)" fill-opacity="0" points="864.504,287.679 864.504,223.588 800.413,223.588 800.412,287.679 " />
<polygon stroke="black" stroke-width="1" fill="rgb(204, 204, 204)" fill-opacity="0" points="800.412,287.679 800.413,223.588 736.321,223.588 736.321,287.679 " />
<polygon stroke="black" stroke-width="1" fill="rgb(204, 204, 204)" fill-opacity="0" points="736.321,287.679 736.321,223.588 672.229,223.588 672.229,287.679 " />
<polygon stroke="black" stroke-width="1" fill="rgb(204, 204, 204)" fill-opacity="0" points="672.229,287.679 672.229,223.588 608.138,223.588 608.138,287.679 " />
<polygon stroke="black" stroke-width="1" fill="rgb(204, 204, 204)" fill-opacity="0" points="608.138,287.679 608.138,223.588 544.046,223.588 544.046,287.679 " />
<polygon stroke="black" stroke-width="1" fill="rgb(204, 204, 204)" fill-opacity="0" points="544.046,287.679 544.046,223.588 479.954,223.588 479.954,287.679 " />
<polygon stroke="black" stroke-width="1" fill="rgb(204, 204, 204)" fill-opacity="0" points="479.954,287.679 479.954,223.588 415.862,223.588 415.862,287.679 " />
<polygon stroke="black" stroke-width="1" fill="rgb(204, 204, 204)" fill-opacity="0" points="415.862,287.679 415.862,223.588 351.771,223.588 351.771,287.679 " />
<polygon stroke="black" stroke-width="1" fill="rgb(204, 204, 204)" fill-opacity="0" points="351.771,287.679 351.771,223.588 287.679,223.588 287.679,287.679 " />
<polygon stroke="black" stroke-width="1" fill="rgb(204, 204, 204)" fill-opacity="0" points="287.679,287.679 287.679,223.588 223.588,223.587 223.587,287.679 " />
<polygon stroke="black" stroke-width="1" fill="rgb(204, 204, 204)" fill-opacity="0" points="864.504,223.588 864.504,159.496 800.413,159.496 800.413,223.588 " />
<polygon stroke="black" stroke-width="1" fill="rgb(204, 204, 204)" fill-opacity="0" points="800.413,223.588 800.413,159.496 736.321,159.496 736.321,223.588 " />
<polygon stroke="black" stroke-width="1" fill="rgb(204, 204, 204)" fill-opacity="0" points="736.321,223.588 736.321,159.496 672.229,159.496 672.229,223.588 " />
<polygon stroke="black" stroke-width="1" fill="rgb(204, 204, 204)" fill-opacity="0" points="672.229,223.588 672.229,159.496 608.138,159.496 608.138,223.588 " />
<polygon stroke="black" stroke-width="1" fill="rgb(204, 204, 204)" fill-opacity="0" points="608.138,223.588 608.138,159.496 544.046,159.496 544.046,223.588 " />
<polygon stroke="black" stroke-width="1" fill="rgb(204, 204, 204)" fill-opacity="0" points="544.046,223.588 544.046,159.496 479.954,159.496 479.954,223.588 " />
<polygon stroke="black" stroke-width="1" fill="rgb(204, 204, 204)" fill-opacity="0" points="479.954,223.588 479.954,159.496 415.863,159.496 415.862,223.588 " />
<polygon stroke="black" stroke-width="1" fill="rgb(204, 204, 204)" fill-opacity="0" points="415.862,223.588 415.863,159.496 351.771,159.496 351.771,223.588 " />
<polygon stroke="black" stroke-width="1" fill="rgb(204, 204, 204)" fill-opacity="0" points="351.771,223.588 351.771,159.496 287.679,159.496 287.679,223.588 " />
<polygon stroke="black" stroke-width="1" fill="rgb(204, 204, 204)" fill-opacity="0" points="287.679,223.588 287.679,159.496 223.588,159.496 223.588,223.587 " />

</svg>
